<mxfile host="app.diagrams.net" modified="2024-01-30T14:46:19.966Z" agent="Mozilla/5.0 (Windows NT 10.0; Win64; x64) AppleWebKit/537.36 (KHTML, like Gecko) Chrome/120.0.0.0 Safari/537.36" etag="k1B6xAdFilFYs-Hu1B8G" version="23.0.2" type="github">
  <diagram name="Page-1" id="_MofC5ta0yTw0Z9mFdGP">
    <mxGraphModel dx="880" dy="460" grid="1" gridSize="10" guides="1" tooltips="1" connect="1" arrows="1" fold="1" page="1" pageScale="1" pageWidth="850" pageHeight="1100" math="0" shadow="0">
      <root>
        <mxCell id="0" />
        <mxCell id="1" parent="0" />
        <mxCell id="HUh1dlwKQfj8_lXao6Q8-16" value="" style="edgeStyle=orthogonalEdgeStyle;rounded=0;orthogonalLoop=1;jettySize=auto;html=1;" edge="1" parent="1">
          <mxGeometry relative="1" as="geometry">
            <mxPoint x="465.00000000000006" y="1000" as="sourcePoint" />
            <mxPoint x="465.00000000000006" y="940" as="targetPoint" />
          </mxGeometry>
        </mxCell>
        <mxCell id="HUh1dlwKQfj8_lXao6Q8-9" style="edgeStyle=orthogonalEdgeStyle;rounded=0;orthogonalLoop=1;jettySize=auto;html=1;exitX=0.5;exitY=0;exitDx=0;exitDy=0;exitPerimeter=0;" edge="1" parent="1">
          <mxGeometry relative="1" as="geometry">
            <mxPoint x="465" y="1381" as="sourcePoint" />
            <mxPoint x="465" y="1301" as="targetPoint" />
          </mxGeometry>
        </mxCell>
        <mxCell id="HUh1dlwKQfj8_lXao6Q8-1" value="" style="edgeStyle=orthogonalEdgeStyle;rounded=0;orthogonalLoop=1;jettySize=auto;html=1;" edge="1" parent="1">
          <mxGeometry relative="1" as="geometry">
            <mxPoint x="464.33000000000004" y="1112" as="sourcePoint" />
            <mxPoint x="464.33000000000004" y="1052" as="targetPoint" />
          </mxGeometry>
        </mxCell>
        <mxCell id="HUh1dlwKQfj8_lXao6Q8-2" value="&lt;b style=&quot;border-color: var(--border-color);&quot;&gt;&lt;font style=&quot;border-color: var(--border-color);&quot; color=&quot;#99004d&quot;&gt;Region - eu-central-1 - Frankfurt&lt;/font&gt;&lt;/b&gt;" style="sketch=0;outlineConnect=0;gradientColor=none;html=1;whiteSpace=wrap;fontSize=12;fontStyle=0;shape=mxgraph.aws4.group;grIcon=mxgraph.aws4.group_region;strokeColor=#e41b80;fillColor=none;verticalAlign=top;align=left;spacingLeft=30;fontColor=#879196;dashed=1;movable=0;resizable=0;rotatable=0;deletable=0;editable=0;locked=1;connectable=0;" vertex="1" parent="1">
          <mxGeometry x="25" y="720" width="800" height="700" as="geometry" />
        </mxCell>
        <mxCell id="HUh1dlwKQfj8_lXao6Q8-3" value="&lt;font size=&quot;1&quot; style=&quot;&quot;&gt;&lt;b style=&quot;background-color: rgb(255, 255, 255);&quot;&gt;Subnet_Public_&lt;/b&gt;&lt;/font&gt;&lt;b style=&quot;border-color: var(--border-color); color: rgb(102, 0, 102);&quot;&gt;10.0.0.1/24&lt;/b&gt;" style="sketch=0;outlineConnect=0;gradientColor=none;html=1;whiteSpace=wrap;fontSize=12;fontStyle=0;shape=mxgraph.aws4.group;grIcon=mxgraph.aws4.group_subnet;strokeColor=#CD2334;fillColor=none;verticalAlign=top;align=left;spacingLeft=30;fontColor=#FF0080;dashed=0;container=0;" vertex="1" parent="1">
          <mxGeometry x="155" y="810" width="180" height="130" as="geometry" />
        </mxCell>
        <mxCell id="HUh1dlwKQfj8_lXao6Q8-4" value="&lt;font size=&quot;1&quot; style=&quot;&quot;&gt;&lt;b style=&quot;background-color: rgb(255, 255, 255);&quot;&gt;Subnet_Private_&lt;/b&gt;&lt;/font&gt;&lt;b style=&quot;border-color: var(--border-color); color: rgb(102, 0, 102);&quot;&gt;10.0.0.2/24&lt;/b&gt;" style="sketch=0;outlineConnect=0;gradientColor=none;html=1;whiteSpace=wrap;fontSize=12;fontStyle=0;shape=mxgraph.aws4.group;grIcon=mxgraph.aws4.group_subnet;strokeColor=#CD2334;fillColor=none;verticalAlign=top;align=left;spacingLeft=30;fontColor=#FF0080;dashed=0;container=0;" vertex="1" parent="1">
          <mxGeometry x="375" y="810" width="180" height="130" as="geometry" />
        </mxCell>
        <mxCell id="HUh1dlwKQfj8_lXao6Q8-5" value="&lt;font size=&quot;1&quot; style=&quot;&quot;&gt;&lt;b style=&quot;background-color: rgb(255, 255, 255);&quot;&gt;Subnet_Mgmt_&lt;/b&gt;&lt;/font&gt;&lt;b style=&quot;border-color: var(--border-color); color: rgb(102, 0, 102);&quot;&gt;10.0.0.3/24&lt;/b&gt;" style="sketch=0;outlineConnect=0;gradientColor=none;html=1;whiteSpace=wrap;fontSize=12;fontStyle=0;shape=mxgraph.aws4.group;grIcon=mxgraph.aws4.group_subnet;strokeColor=#CD2334;fillColor=none;verticalAlign=top;align=left;spacingLeft=30;fontColor=#FF0080;dashed=0;container=0;" vertex="1" parent="1">
          <mxGeometry x="595" y="810" width="180" height="130" as="geometry" />
        </mxCell>
        <mxCell id="HUh1dlwKQfj8_lXao6Q8-6" value="&lt;font style=&quot;font-size: 12px;&quot;&gt;&lt;b style=&quot;font-size: 12px;&quot;&gt;Security&lt;br&gt;&amp;nbsp;Group&lt;/b&gt;&lt;/font&gt;" style="image;sketch=0;aspect=fixed;html=1;points=[];align=center;fontSize=12;image=img/lib/mscae/Network_Security_Groups_Classic.svg;container=0;" vertex="1" parent="1">
          <mxGeometry x="280" y="846.48" width="38.3" height="51.76" as="geometry" />
        </mxCell>
        <mxCell id="HUh1dlwKQfj8_lXao6Q8-7" value="Internet Gateway" style="outlineConnect=0;dashed=0;verticalLabelPosition=bottom;verticalAlign=top;align=center;html=1;shape=mxgraph.aws3.internet_gateway;fillColor=#F58534;gradientColor=none;fontStyle=1;fontSize=10;container=0;" vertex="1" parent="1">
          <mxGeometry x="435" y="1338" width="60" height="60" as="geometry" />
        </mxCell>
        <mxCell id="HUh1dlwKQfj8_lXao6Q8-11" value="Router Table&lt;br&gt;" style="sketch=0;aspect=fixed;pointerEvents=1;shadow=0;dashed=0;html=1;strokeColor=none;labelPosition=center;verticalLabelPosition=bottom;verticalAlign=top;align=center;fillColor=#00188D;shape=mxgraph.mscae.enterprise.router;container=0;" vertex="1" parent="1">
          <mxGeometry x="435" y="1110" width="60" height="46.8" as="geometry" />
        </mxCell>
        <mxCell id="HUh1dlwKQfj8_lXao6Q8-14" value="Network ACL" style="outlineConnect=0;dashed=0;verticalLabelPosition=bottom;verticalAlign=top;align=center;html=1;shape=mxgraph.aws3.network_access_controllist;fillColor=#F58534;gradientColor=none;fontSize=10;fontStyle=1;container=0;" vertex="1" parent="1">
          <mxGeometry x="438" y="979" width="55" height="56" as="geometry" />
        </mxCell>
        <mxCell id="HUh1dlwKQfj8_lXao6Q8-24" value="Web Server" style="image;aspect=fixed;perimeter=ellipsePerimeter;html=1;align=center;shadow=0;dashed=0;spacingTop=3;image=img/lib/active_directory/web_server.svg;fontStyle=1;container=0;" vertex="1" parent="1">
          <mxGeometry x="185" y="848.24" width="40" height="50" as="geometry" />
        </mxCell>
        <mxCell id="HUh1dlwKQfj8_lXao6Q8-25" value="Web Server" style="image;aspect=fixed;perimeter=ellipsePerimeter;html=1;align=center;shadow=0;dashed=0;spacingTop=3;image=img/lib/active_directory/web_server.svg;fontStyle=1;container=0;" vertex="1" parent="1">
          <mxGeometry x="625" y="848.24" width="40" height="50" as="geometry" />
        </mxCell>
        <mxCell id="HUh1dlwKQfj8_lXao6Q8-26" value="&lt;font style=&quot;font-size: 12px;&quot;&gt;&lt;b style=&quot;font-size: 12px;&quot;&gt;Security&lt;br&gt;&amp;nbsp;Group&lt;/b&gt;&lt;/font&gt;" style="image;sketch=0;aspect=fixed;html=1;points=[];align=center;fontSize=12;image=img/lib/mscae/Network_Security_Groups_Classic.svg;container=0;" vertex="1" parent="1">
          <mxGeometry x="715" y="846.48" width="38.3" height="51.76" as="geometry" />
        </mxCell>
        <mxCell id="HUh1dlwKQfj8_lXao6Q8-27" value="&lt;font style=&quot;font-size: 12px;&quot;&gt;&lt;b style=&quot;font-size: 12px;&quot;&gt;Security&lt;br&gt;&amp;nbsp;Group&lt;/b&gt;&lt;/font&gt;" style="image;sketch=0;aspect=fixed;html=1;points=[];align=center;fontSize=12;image=img/lib/mscae/Network_Security_Groups_Classic.svg;container=0;" vertex="1" parent="1">
          <mxGeometry x="493" y="848.24" width="38.3" height="51.76" as="geometry" />
        </mxCell>
        <mxCell id="HUh1dlwKQfj8_lXao6Q8-28" value="&lt;b&gt;DataBase&lt;/b&gt;" style="image;aspect=fixed;perimeter=ellipsePerimeter;html=1;align=center;shadow=0;dashed=0;spacingTop=3;image=img/lib/active_directory/database_server.svg;container=0;" vertex="1" parent="1">
          <mxGeometry x="400" y="850" width="41" height="50" as="geometry" />
        </mxCell>
        <mxCell id="HUh1dlwKQfj8_lXao6Q8-29" value="&lt;font color=&quot;#660066&quot;&gt;&lt;b&gt;VPC - 10.0.0.0/16&lt;/b&gt;&lt;/font&gt;" style="points=[[0,0],[0.25,0],[0.5,0],[0.75,0],[1,0],[1,0.25],[1,0.5],[1,0.75],[1,1],[0.75,1],[0.5,1],[0.25,1],[0,1],[0,0.75],[0,0.5],[0,0.25]];outlineConnect=0;gradientColor=none;html=1;whiteSpace=wrap;fontSize=12;fontStyle=0;container=0;pointerEvents=0;collapsible=0;recursiveResize=0;shape=mxgraph.aws4.group;grIcon=mxgraph.aws4.group_vpc2;strokeColor=#8C4FFF;fillColor=none;verticalAlign=top;align=left;spacingLeft=30;fontColor=#AAB7B8;dashed=1;dashPattern=1 1;" vertex="1" parent="1">
          <mxGeometry x="55" y="768.24" width="750" height="521.76" as="geometry" />
        </mxCell>
        <mxCell id="HUh1dlwKQfj8_lXao6Q8-31" value="" style="edgeStyle=orthogonalEdgeStyle;rounded=0;orthogonalLoop=1;jettySize=auto;html=1;" edge="1" parent="1">
          <mxGeometry relative="1" as="geometry">
            <mxPoint x="232" y="1012" as="sourcePoint" />
            <mxPoint x="232" y="952" as="targetPoint" />
          </mxGeometry>
        </mxCell>
        <mxCell id="HUh1dlwKQfj8_lXao6Q8-37" style="edgeStyle=orthogonalEdgeStyle;rounded=0;orthogonalLoop=1;jettySize=auto;html=1;exitX=0.5;exitY=0;exitDx=0;exitDy=0;exitPerimeter=0;" edge="1" parent="1">
          <mxGeometry relative="1" as="geometry">
            <mxPoint x="464.5" y="1260" as="sourcePoint" />
            <mxPoint x="464.5" y="1180" as="targetPoint" />
          </mxGeometry>
        </mxCell>
        <mxCell id="HUh1dlwKQfj8_lXao6Q8-8" value="Router&lt;br&gt;&lt;br&gt;" style="outlineConnect=0;dashed=0;verticalLabelPosition=bottom;verticalAlign=top;align=center;html=1;shape=mxgraph.aws3.router;fillColor=#F58534;gradientColor=none;container=0;" vertex="1" parent="1">
          <mxGeometry x="435" y="1210" width="60" height="60" as="geometry" />
        </mxCell>
        <mxCell id="HUh1dlwKQfj8_lXao6Q8-44" value="" style="group" vertex="1" connectable="0" parent="1">
          <mxGeometry x="609" y="951" width="92.08779220779229" height="61" as="geometry" />
        </mxCell>
        <mxCell id="HUh1dlwKQfj8_lXao6Q8-36" value="" style="endArrow=none;html=1;rounded=0;" edge="1" parent="HUh1dlwKQfj8_lXao6Q8-44">
          <mxGeometry width="50" height="50" relative="1" as="geometry">
            <mxPoint x="-91.84415584415592" y="61" as="sourcePoint" />
            <mxPoint x="92" y="61" as="targetPoint" />
            <Array as="points">
              <mxPoint x="12" y="61" />
              <mxPoint y="61" />
            </Array>
          </mxGeometry>
        </mxCell>
        <mxCell id="HUh1dlwKQfj8_lXao6Q8-35" value="" style="edgeStyle=orthogonalEdgeStyle;rounded=0;orthogonalLoop=1;jettySize=auto;html=1;" edge="1" parent="HUh1dlwKQfj8_lXao6Q8-44">
          <mxGeometry relative="1" as="geometry">
            <mxPoint x="92.08779220779229" y="60" as="sourcePoint" />
            <mxPoint x="92.08779220779229" as="targetPoint" />
          </mxGeometry>
        </mxCell>
        <mxCell id="HUh1dlwKQfj8_lXao6Q8-46" value="" style="endArrow=none;html=1;rounded=0;" edge="1" parent="1">
          <mxGeometry width="50" height="50" relative="1" as="geometry">
            <mxPoint x="232.99584415584405" y="1012" as="sourcePoint" />
            <mxPoint x="416.84" y="1012" as="targetPoint" />
            <Array as="points">
              <mxPoint x="336.84" y="1012" />
              <mxPoint x="324.84" y="1012" />
            </Array>
          </mxGeometry>
        </mxCell>
      </root>
    </mxGraphModel>
  </diagram>
</mxfile>
